Coordinates
version=1
nRows=60
nColumns=12
inDegrees=yes

Units are S.I. units (second, meters, Newtons, ...)
Angles are in degrees

endheader
time	SC_y	SC_z	SC_x	AC_y	AC_z	AC_x	GH_y	GH_z	GH_yy	EL_x	PS_y
       0.0              -13.27          9.592          16.76          53.94          4.706          15.68          9.189         0.4263         -108.9          126.2          44.39
    0.0173              -13.27          9.595          16.76          53.94          4.702          15.68          9.171         0.4354         -108.9          126.2           44.4
   0.03459              -13.28          9.598          16.76          53.94          4.699          15.68          9.152         0.4452         -108.9          126.2          44.42
   0.05189              -13.28          9.602          16.76          53.94          4.695          15.67          9.131         0.4555         -108.9          126.2          44.43
   0.06919              -13.28          9.606          16.77          53.94          4.691          15.67          9.109         0.4665         -108.9          126.2          44.44
   0.08649              -13.29           9.61          16.77          53.94          4.687          15.66          9.085         0.4783         -108.9          126.2          44.46
    0.1038              -13.29          9.614          16.77          53.93          4.683          15.66           9.06         0.4908         -108.9          126.2          44.47
    0.1211              -13.29          9.619          16.77          53.93          4.678          15.65          9.033         0.5042         -108.9          126.2          44.49
    0.1384               -13.3          9.624          16.78          53.93          4.673          15.65          9.004         0.5186         -108.9          126.2          44.51
    0.1557               -13.3          9.629          16.78          53.93          4.668          15.64          8.973          0.534         -108.9          126.2          44.53
     0.173              -13.31          9.635          16.78          53.93          4.662          15.64           8.94         0.5505         -108.9          126.2          44.55
    0.1903              -13.31          9.641          16.79          53.92          4.655          15.63          8.904         0.5683         -108.9          126.2          44.57
    0.2076              -13.32          9.648          16.79          53.92          4.649          15.63          8.865         0.5875         -109.0          126.2           44.6
    0.2249              -13.32          9.655          16.79          53.92          4.641          15.62          8.824         0.6082         -109.0          126.2          44.62
    0.2422              -13.33          9.663           16.8          53.91          4.633          15.61          8.778         0.6307         -109.0          126.2          44.65
    0.2595              -13.34          9.671           16.8          53.91          4.625           15.6          8.729          0.655         -109.0          126.1          44.68
    0.2768              -13.34           9.68          16.81          53.91          4.615          15.59          8.676         0.6814         -109.0          126.1          44.72
    0.2941              -13.35           9.69          16.82           53.9          4.605          15.58          8.618         0.7102         -109.0          126.1          44.76
    0.3114              -13.36          9.701          16.82           53.9          4.594          15.57          8.555         0.7417         -109.0          126.1           44.8
    0.3286              -13.37          9.713          16.83          53.89          4.582          15.56          8.486         0.7761         -109.0          126.1          44.84
    0.3459              -13.38          9.726          16.84          53.89          4.569          15.55           8.41          0.814         -109.0          126.1          44.89
    0.3632              -13.39           9.74          16.84          53.88          4.554          15.53          8.326         0.8556         -109.0          126.1          44.94
    0.3805              -13.41          9.756          16.85          53.87          4.538          15.52          8.234         0.9015         -109.0          126.1           45.0
    0.3978              -13.42          9.774          16.86          53.87           4.52           15.5          8.131         0.9525         -109.1          126.1          45.07
    0.4151              -13.44          9.793          16.88          53.86            4.5          15.48          8.017          1.009         -109.1          126.1          45.14
    0.4324              -13.45          9.815          16.89          53.85          4.477          15.46           7.89          1.072         -109.1          126.0          45.22
    0.4497              -13.47           9.84           16.9          53.84          4.452          15.44          7.748          1.143         -109.1          126.0          45.31
     0.467               -13.5          9.867          16.92          53.83          4.424          15.41          7.588          1.223         -109.1          126.0          45.41
    0.4843              -13.52          9.898          16.94          53.81          4.392          15.38          7.407          1.313         -109.2          126.0          45.53
    0.5016              -13.55          9.934          16.96           53.8          4.356          15.34          7.201          1.415         -109.2          126.0          45.66
    0.5189              -13.58          9.974          16.98          53.78          4.315           15.3          6.967          1.531         -109.2          125.9          45.81
    0.5362              -13.62          10.02          17.01          53.76          4.268          15.26          6.698          1.665         -109.3          125.9          45.98
    0.5535              -13.66          10.07          17.04          53.74          4.213           15.2          6.387           1.82         -109.3          125.9          46.18
    0.5708              -13.71          10.14          17.08          53.71           4.15          15.14          6.026          1.999         -109.4          125.8          46.41
    0.5881              -13.77          10.21          17.12          53.68          4.075          15.07          5.604          2.209         -109.4          125.8          46.68
    0.6054              -13.84          10.29          17.17          53.65          3.988          14.99          5.106          2.457         -109.5          125.7           47.0
    0.6227              -13.93           10.4          17.23          53.61          3.884          14.89          4.514          2.751         -109.6          125.6          47.38
      0.64              -14.02          10.52          17.31          53.55          3.759          14.76          3.805          3.104         -109.7          125.5          47.83
    0.6573              -14.14          10.66          17.39          53.49          3.608          14.62          2.947           3.53         -109.8          125.4          48.38
    0.6746              -14.29          10.85           17.5          53.42          3.424          14.44          1.899          4.051         -109.9          125.3          49.05
    0.6919              -14.47          11.07          17.63          53.32          3.197          14.22          0.605          4.695         -110.1          125.2          49.87
    0.7092               -14.7          11.34           17.8          53.21          2.913          13.94         -1.008          5.497         -110.3          125.0           50.9
    0.7265              -14.98          11.69          18.01          53.06          2.556           13.6         -3.041          6.507         -110.6          124.7           52.2
    0.7438              -15.34          12.14          18.27          52.87          2.102          13.16         -5.624          7.792         -111.0          124.4          53.85
    0.7611               -15.8          12.71          18.61          52.63          1.521          12.59         -8.931          9.436         -111.4          124.0          55.96
    0.7784               -16.4          13.44          19.04          52.32         0.7746          11.87         -13.17          11.55         -112.0          123.5          58.67
    0.7957              -17.15          14.37          19.59          51.93        -0.1781          10.95         -18.59          14.24         -112.8          122.8          62.13
     0.813              -18.11          15.54          20.29          51.44         -1.376          9.786         -25.41          17.63         -113.7          122.0          66.48
    0.8303              -19.27          16.97          21.14          50.84         -2.836          8.371         -33.72          21.76         -114.9          121.0          71.78
    0.8476              -20.61          18.62          22.12          50.14         -4.528           6.73         -43.34          26.55         -116.2          119.8          77.92
    0.8649              -22.07          20.41          23.19          49.38         -6.361          4.954         -53.77          31.73         -117.7          118.5          84.58
    0.8822              -23.53          22.21          24.25          48.63         -8.193          3.178         -64.19          36.91         -119.1          117.2          91.23
    0.8995              -24.87          23.86          25.23          47.93         -9.885          1.537         -73.82           41.7         -120.5          116.0          97.38
    0.9168              -26.03          25.29          26.08          47.33         -11.35         0.1218         -82.12          45.83         -121.6          115.0          102.7
    0.9341              -26.98          26.46          26.78          46.84         -12.54          -1.04         -88.94          49.22         -122.6          114.2          107.0
    0.9513              -27.74          27.39          27.33          46.44          -13.5         -1.963         -94.36          51.91         -123.3          113.5          110.5
    0.9686              -28.33          28.12          27.76          46.14         -14.24         -2.686          -98.6          54.02         -123.9          113.0          113.2
    0.9859               -28.8          28.69           28.1           45.9         -14.82          -3.25         -101.9          55.67         -124.4          112.6          115.3
     1.003              -29.16          29.13          28.37          45.71         -15.28          -3.69         -104.5          56.95         -124.8          112.3          117.0
     1.021              -29.44          29.48          28.57          45.56         -15.63         -4.036         -106.5          57.96         -125.0          112.0          118.3
